<?xml version="1.0" standalone="no"?>
<!DOCTYPE svg PUBLIC "-//W3C//DTD SVG 20010904//EN"
 "http://www.w3.org/TR/2001/REC-SVG-20010904/DTD/svg10.dtd">
<svg version="1.0" xmlns="http://www.w3.org/2000/svg"
 width="512.000000pt" height="512.000000pt" viewBox="0 0 512.000000 512.000000"
 preserveAspectRatio="xMidYMid meet">
<metadata>
Created by potrace 1.11, written by Peter Selinger 2001-2013
</metadata>
<g transform="translate(0.000000,512.000000) scale(0.100000,-0.100000)"
fill="#000000" stroke="none">
<path d="M4408 3956 c-27 -7 -48 -11 -48 -10 0 8 -113 -47 -147 -72 -65 -48
-143 -135 -209 -235 -35 -54 -64 -100 -64 -102 0 -3 -20 -40 -43 -83 -24 -44
-78 -144 -120 -224 -42 -80 -107 -203 -146 -275 l-69 -130 -151 -3 -151 -3 0
524 c0 570 2 555 -57 574 -16 5 -104 9 -198 8 -178 -1 -205 -7 -226 -47 -17
-31 -16 -2661 1 -2693 21 -39 51 -45 235 -45 186 0 215 6 234 47 8 17 11 201
11 606 l0 582 153 0 152 0 88 -140 c49 -77 99 -156 112 -175 12 -19 94 -147
180 -285 87 -137 168 -266 180 -285 12 -19 51 -80 87 -135 35 -55 77 -121 93
-147 17 -26 42 -52 56 -58 17 -7 99 -10 227 -8 193 3 202 4 224 25 40 41 29
73 -89 263 -109 173 -380 606 -627 998 l-127 203 127 242 c70 133 135 256 144
272 9 17 36 66 60 110 55 102 116 183 160 213 32 22 42 24 121 18 80 -6 86 -5
107 17 19 20 34 71 56 190 3 15 10 55 17 90 22 121 10 148 -78 171 -65 17
-216 19 -275 2z"/>
<path d="M326 3917 c-13 -4 -31 -23 -40 -42 -15 -30 -16 -161 -14 -1359 l3
-1325 23 -23 c22 -22 30 -23 224 -26 206 -3 243 2 264 36 6 9 34 62 64 117 29
55 69 132 90 170 21 39 58 109 84 158 113 213 142 268 189 357 27 52 67 127
87 165 80 150 130 244 185 350 32 61 86 162 119 225 34 63 79 154 100 203 36
80 55 112 42 70 -13 -42 -17 -295 -18 -1016 -1 -606 2 -773 12 -792 22 -41 54
-47 243 -43 168 3 178 4 199 26 l23 23 3 1327 c2 1251 1 1329 -15 1360 -11 20
-29 36 -46 40 -15 4 -113 7 -216 7 -154 -1 -192 -4 -212 -17 -13 -8 -46 -60
-74 -114 -27 -55 -53 -101 -56 -104 -3 -3 -35 -61 -71 -130 -36 -69 -87 -165
-113 -215 -85 -161 -136 -258 -193 -365 -30 -58 -72 -136 -92 -175 -20 -38
-64 -122 -98 -185 -33 -63 -86 -162 -117 -220 -31 -58 -79 -153 -108 -212 -28
-60 -55 -108 -59 -108 -5 0 -7 4 -4 8 20 33 27 1753 7 1790 -21 40 -48 46
-223 46 -92 1 -178 -2 -192 -7z"/>
</g>
</svg>
